# xmcd
#
# Track frame offsets:
#	150
#	12585
#	26183
#	38155
#	51443
#	74450
#	86590
#	104045
#	116033
#	134753
#
# Disc length: 1991 seconds
#
# Revision: 0
# Processed by: cddbd v1.4PL0 Copyright (c) Steve Scherf et al.
# Submitted via: dBpowerAMP V4.0
#
DISCID=9a07c50a
DTITLE=Hemphills - Celebration
DYEAR=1989
DGENRE=Gospel
TTITLE0=The Party's Over
TTITLE1=Paid In Full
TTITLE2=Testimony
TTITLE3=Look What's Coming Down The Road
TTITLE4=Every Need Supplied
TTITLE5=Holy Ghost Revival
TTITLE6=Could I Wish
TTITLE7=Call Me Blessed
TTITLE8=Let The Whole World Know
TTITLE9=The World Lost A Friend
EXTD=
EXTT0=
EXTT1=
EXTT2=
EXTT3=
EXTT4=
EXTT5=
EXTT6=
EXTT7=
EXTT8=
EXTT9=
PLAYORDER=
